<?xml version="1.0" encoding="UTF-8" standalone="no"?>
<!-- Created with Inkscape (http://www.inkscape.org/) -->

<svg
   width="512"
   height="256"
   viewBox="0 0 512 256"
   version="1.1"
   id="svg1"
   xml:space="preserve"
   inkscape:version="1.4 (86a8ad7, 2024-10-11)"
   sodipodi:docname="logo.svg"
   xmlns:inkscape="http://www.inkscape.org/namespaces/inkscape"
   xmlns:sodipodi="http://sodipodi.sourceforge.net/DTD/sodipodi-0.dtd"
   xmlns="http://www.w3.org/2000/svg"
   xmlns:svg="http://www.w3.org/2000/svg"><sodipodi:namedview
     id="namedview1"
     pagecolor="#ffffff"
     bordercolor="#000000"
     borderopacity="0.25"
     inkscape:showpageshadow="2"
     inkscape:pageopacity="0.0"
     inkscape:pagecheckerboard="0"
     inkscape:deskcolor="#d1d1d1"
     inkscape:document-units="px"
     showguides="true"
     inkscape:zoom="1.6420898"
     inkscape:cx="302.66311"
     inkscape:cy="279.82635"
     inkscape:window-width="2560"
     inkscape:window-height="1494"
     inkscape:window-x="-11"
     inkscape:window-y="-11"
     inkscape:window-maximized="1"
     inkscape:current-layer="g5" /><defs
     id="defs1" /><g
     inkscape:label="图层 1"
     inkscape:groupmode="layer"
     id="layer1"><g
       id="g5"
       transform="matrix(0.5,0,0,0.5,128.94574,92.337652)"><g
         id="g51"
         transform="translate(0,-184.19286)"><g
           id="g50"
           transform="translate(1.1966715)"><path
             style="fill:#ef5c0a"
             d="m -3.0540399,186.32062 c -0.7707449,-1.2375 -6.028431,-9.9 -11.6837471,-19.25 -5.655315,-9.35 -12.23508,-20.01355 -14.621698,-23.69679 -6.330373,-9.76956 -8.07816,-6.85298 25.6502199,-42.80321 C 4.2888596,92.045618 15.488322,80.008118 21.17843,73.820618 l 10.34565,-11.25 h 47.388564 c 37.921446,0 47.388566,0.256596 47.388566,1.284418 0,2.710312 -124.398969,124.715584 -127.16245569,124.715584 -0.43529191,0 -1.42204931,-1.0125 -2.19279421,-2.25 z"
             id="path32" /><path
             style="fill:#ef5c0a"
             d="m 109.32688,221.93876 c -6.16451,-5.18709 -2.41986,-14.34854 5.96224,-14.58686 7.92422,-0.22531 10.85367,10.41002 4.11421,14.93655 -4.37737,2.94003 -6.24382,2.87526 -10.07645,-0.34969 z"
             id="path31" /><path
             style="fill:#ef5c0a"
             d="m 126.22429,238.64754 c -3.42156,-3.42156 -3.67182,-5.85534 -0.95698,-9.3067 4.69841,-5.97306 12.91073,-5.67106 15.53545,0.57129 3.92594,9.33707 -7.26889,16.045 -14.57847,8.73541 z"
             id="path30" /><path
             style="fill:#ef5c0a"
             d="m 89.890102,238.49389 c -2.992056,-3.55585 -3.157041,-4.92392 -1.078543,-8.94329 3.050702,-5.89941 9.764707,-6.81867 13.900751,-1.90326 4.90507,5.82934 1.17814,13.92328 -6.411102,13.92328 -3.040454,0 -4.351719,-0.62929 -6.411106,-3.07673 z"
             id="path29" /><path
             style="fill:#ef5c0a"
             d="m 107.75575,257.11607 c -6.40717,-6.40717 1.4939,-17.68297 9.92285,-14.16113 3.71283,1.55132 6.30541,6.88901 5.13587,10.57389 -1.84987,5.82842 -10.7075,7.93846 -15.05872,3.58724 z"
             id="path28" /><path
             style="fill:#ef5c0a"
             d="m -121.29091,319.19117 c -0.29113,-0.7587 2.40335,-16.1712 5.98775,-34.25 13.29336,-67.04842 13.13668,-66.14011 11.92304,-69.12054 -1.10401,-2.7112 -14.21554,-30.54269 -26.1848,-55.58176 -3.37363,-7.05746 -6.13387,-12.9668 -6.13387,-13.13187 0,-0.16506 -4.05,-8.70672 -9,-18.98146 -4.95,-10.27474 -9,-18.84928 -9,-19.05454 0,-0.20526 -4.95,-10.474939 -11,-22.821514 -6.05,-12.346575 -11,-22.729825 -11,-23.073888 0,-0.344064 20.07352,-0.508438 44.60782,-0.365275 l 44.607813,0.260295 6.537297,14 c 26.680021,57.136812 44.34658,91.844082 59.387741,116.671652 6.751332,11.14403 6.823952,11.55966 2.996173,17.14817 -7.128169,10.40706 -9.675144,20.17671 -19.730016,75.68018 -3.138554,17.325 -6.144145,32.0625 -6.679091,32.75 -1.502662,1.93119 -76.577347,1.8055 -77.319857,-0.12945 z"
             id="path27" /><path
             style="fill:#1c1c1c"
             d="m 179.86218,269.04135 c -9.19847,-59.63457 -25.86308,-91.01449 -52.56097,-98.97373 -6.96256,-2.0757 -8.52594,-2.93899 -8.39451,-4.63539 0.10124,-1.30684 3.42294,-18.45814 14.69214,-75.861612 l 5.20237,-26.5 96.75,-0.254974 c 96.75,-0.254974 96.75,-0.254974 96.7064,2.5 -0.024,1.515236 -2.61148,15.354974 -5.75,30.754974 l -5.7064,28.000002 -56.94854,0.5 -56.94853,0.5 -3.77696,20 c -2.07732,11 -3.78798,20.5625 -3.80146,21.25 -0.0193,0.98209 9.75408,1.25 45.60049,1.25 45.625,0 45.625,0 45.04137,2.75 -0.321,1.5125 -2.80944,13.325 -5.52986,26.25 -2.72043,12.925 -5.35494,25.075 -5.85446,27 l -0.90823,3.5 -43.93691,0.52634 c -24.1653,0.28949 -43.98767,0.62699 -44.04971,0.75 -0.062,0.12301 -0.66131,3.71116 -1.3317,7.97366 -4.30246,27.35594 -7.4512,39.48478 -8.49453,32.72073 z"
             id="path40" /><path
             style="fill:#1c1c1c"
             d="m 469.8409,319.63484 c -0.31809,-0.51467 3.00125,-19.75217 7.3763,-42.75 4.37506,-22.99782 11.57837,-61.38922 16.00737,-85.31422 4.42899,-23.925 8.3956,-45.075 8.81468,-47 l 0.76196,-3.5 33.75,-0.2633 c 38.88765,-0.30339 34.96374,-1.85594 32.19522,12.73849 -2.04958,10.80451 -1.91074,10.93296 4.90568,4.53828 37.63905,-35.31029 96.41221,-26.73013 107.27216,15.66042 3.19224,12.46054 -6.75831,80.07081 -21.10713,143.41505 -0.52547,2.31972 -66.59986,4.72713 -68.81956,2.50743 -0.60142,-0.60142 -0.15191,-5.11364 1.22271,-12.27372 21.79656,-113.53279 21.75311,-115.82265 -2.19774,-115.82265 -23.52151,0 -27.89107,6.4816 -36.74112,54.5 -10.58016,57.40565 -13.7305,72.72661 -15.13763,73.61844 -1.86004,1.17889 -67.57304,1.12672 -68.3029,-0.0542 z"
             id="path39" /><path
             style="fill:#1c1c1c"
             d="m -8.5014638,320.38499 c -12.4735432,-6.04717 -15.4063442,-18.85497 -10.6485352,-46.50308 6.826882,-39.6717 14.5494429,-59.87725 27.3147657,-71.46723 3.8550213,-3.50008 6.1196333,-6.42215 6.5630943,-8.46848 2.517119,-11.61514 29.498651,-15.94685 35.540973,-5.70588 3.169608,5.37209 47.725712,5.2101 50.908946,-0.18508 6.24618,-10.58649 35.09075,-4.37962 35.11969,7.55717 0.002,0.84799 2.05783,3.54799 4.56838,6 20.89282,20.40565 34.29149,95.91527 19.98523,112.62891 -13.93838,16.28387 -26.08448,11.51578 -46.28751,-18.1707 -16.185758,-23.78347 -11.78005,-21.5 -41.481987,-21.5 -28.108988,0 -25.746284,-1.18735 -41.44878,20.82965 -18.739261,26.27496 -26.9410394,31.3808 -40.1342668,24.98472 z M 119.60724,257.54453 c 3.388,-2.665 4.09692,-5.22292 2.65685,-9.58639 -2.31813,-7.02399 -10.84825,-7.67237 -15.40218,-1.17073 -5.57997,7.96653 4.9715,16.87202 12.74533,10.75712 z m -77.166815,-0.88464 c 1.944756,-1.57402 2.448896,-3.11598 2.860783,-8.75 l 0.5,-6.83927 7.203107,-0.5 c 8.138267,-0.56492 9.129483,-1.19352 9.9609,-6.31694 1.046033,-6.44595 -1.288034,-8.53994 -9.908279,-8.88914 l -7.255728,-0.29392 -0.272509,-7 c -0.374354,-9.6161 -4.265957,-12.71775 -11.704414,-9.32856 -2.859443,1.30285 -3.386321,2.81867 -3.763847,10.82856 l -0.25923,5.5 -7.872743,0.55762 c -8.808928,0.62392 -10.627257,1.91107 -10.627257,7.52272 0,5.63181 2.457465,7.34063 11,7.64896 l 7.5,0.2707 0.27251,7 c 0.384101,9.86645 5.983565,13.75555 12.366707,8.58927 z m 60.271885,-18.166 c 6.17412,-7.33751 -2.00995,-17.41943 -10.466493,-12.89363 -7.756307,4.15105 -4.755002,15.97036 4.055391,15.97036 3.040455,0 4.351722,-0.62929 6.411102,-3.07673 z m 35.90142,1.82673 c 4.7413,-3.49699 3.41703,-12.37675 -2.1923,-14.7002 -5.21778,-2.16128 -13.12022,2.75476 -13.12022,8.16198 0,5.58665 10.51523,10.0765 15.31252,6.53822 z m -19.2104,-18.03217 c 6.73946,-4.52653 3.81001,-15.16186 -4.11421,-14.93655 -8.3821,0.23832 -12.12675,9.39977 -5.96224,14.58686 3.83263,3.22495 5.69908,3.28972 10.07645,0.34969 z"
             id="path38" /><path
             style="fill:#1c1c1c"
             d="m 314.80121,322.60949 c -23.63663,-5.1041 -36.42588,-19.14404 -37.31501,-40.96414 -1.84946,-45.38779 38.56628,-69.07473 117.85847,-69.07473 10.69893,0 11.28794,-20.94847 0.75076,-26.70145 -12.25838,-6.69272 -32.51905,0.53119 -37.72687,13.45145 -0.7205,1.7875 -1.3679,3.27663 -1.43867,3.30918 -2.85853,1.31476 -56.7325,0.83386 -57.24858,-0.51103 -0.95697,-2.49383 2.35909,-13.61463 6.79479,-22.7871 25.04266,-51.78501 136.46496,-58.99862 160.34117,-10.38067 7.75975,15.8008 7.42752,21.95863 -4.80829,89.11962 -5.21053,28.6 -9.7724,54.09394 -10.13749,56.6532 -0.6638,4.65321 -0.6638,4.65321 -7.36704,5.22181 -8.89324,0.75436 -51.85265,0.30952 -52.70762,-0.54579 -1.25812,-1.25862 -2.44787,-8.31875 -2.47176,-14.66781 l -0.0239,-6.3386 -6.55325,6.00486 c -15.99647,14.65787 -46.51847,22.83842 -67.94675,18.2112 z m 61.91721,-46.9235 c 10.64947,-5.24272 17.22627,-14.83149 19.22244,-28.02575 l 0.66726,-4.41038 -11.94264,0.60047 c -22.24618,1.11852 -32.9971,5.19892 -37.34109,14.17241 -8.3166,17.1798 9.1076,27.65023 29.39403,17.66325 z"
             id="path37" /></g><g
           id="g49"
           style="fill:#898989;fill-opacity:1"
           transform="translate(-8.262665)"><path
             style="font-size:169.975px;line-height:1;font-family:'Eras Bold ITC';-inkscape-font-specification:'Eras Bold ITC';text-align:end;text-anchor:end;fill:#898989;fill-opacity:1;stroke-width:5.09768"
             d="m 687.47469,398.66713 14.27524,-20.58291 10.70643,-16.51613 q 11.4534,0.166 17.34609,0.166 8.13357,0 19.25498,-0.166 l -16.51613,21.49587 q -5.80969,7.38661 -11.86837,15.93515 5.80969,10.70644 27.96952,47.3075 -9.71049,-0.16599 -17.51207,-0.16599 -7.96758,0 -18.25904,0.16599 l -5.14573,-10.37445 q -2.73885,-5.39472 -4.73075,-9.04652 -0.74696,-1.49392 -11.37039,-20.33393 z"
             id="path49" /><path
             style="font-size:169.975px;line-height:1;font-family:'Eras Bold ITC';-inkscape-font-specification:'Eras Bold ITC';text-align:end;text-anchor:end;fill:#898989;fill-opacity:1;stroke-width:5.09768"
             d="m 650.87362,446.30661 q 1.16194,-10.62344 1.65991,-17.26309 0.66397,-9.04652 1.32793,-22.6578 l 0.91296,-19.66996 q 0.58097,-13.36229 0.82995,-25.56264 0.33198,-14.60723 0.33198,-28.13552 11.61939,0.166 17.42908,0.166 6.72265,0 15.93516,-0.166 -1.9089,21.74485 -3.48582,54.03015 -1.57691,32.28529 -1.57691,59.25886 -9.62749,-0.16599 -16.26714,-0.16599 -7.6356,0 -17.0971,0.16599 z"
             id="path48" /><path
             style="font-size:169.975px;line-height:1;font-family:'Eras Bold ITC';-inkscape-font-specification:'Eras Bold ITC';text-align:end;text-anchor:end;fill:#898989;fill-opacity:1;stroke-width:5.09768"
             d="m 578.16947,446.30661 2.57287,-36.85005 0.82995,-21.16388 q 0.083,-5.7267 0.083,-11.70238 0,-6.05868 -0.16599,-15.02221 10.04246,0.166 15.93515,0.166 6.88864,0 15.85216,-0.166 l -0.33198,9.37851 q 3.23683,-3.65181 5.31172,-5.39472 2.07489,-1.8259 4.73075,-3.23683 2.65586,-1.49392 5.56071,-2.15788 2.90484,-0.74696 6.05868,-0.74696 2.98784,0 6.63964,0.82995 0.083,9.04653 0.41498,14.93921 l 0.58097,12.78133 q -4.56476,-1.32793 -8.54855,-1.32793 -4.97973,0 -8.63154,1.49392 -3.56881,1.41092 -6.39066,4.39877 -2.73886,2.90484 -4.39877,7.30361 -1.65991,4.39877 -2.32388,13.94326 -0.66396,9.5445 -0.66396,21.82785 0,4.31577 0.33198,10.70643 -8.05057,-0.16599 -16.18414,-0.16599 -8.05058,0 -17.26309,0.16599 z"
             id="path47" /><path
             style="font-size:169.975px;line-height:1;font-family:'Eras Bold ITC';-inkscape-font-specification:'Eras Bold ITC';text-align:end;text-anchor:end;fill:#898989;fill-opacity:1;stroke-width:5.09768"
             d="m 517.33371,359.41021 q 10.29145,0 19.75295,3.15383 9.5445,3.15383 16.10115,9.12952 6.55665,5.89269 9.62749,13.86026 3.15383,7.88459 3.15383,17.0141 0,8.88053 -2.82185,16.93111 -2.73885,7.96758 -9.3785,15.0222 -6.63965,6.97163 -16.93111,10.45745 -10.20845,3.48582 -21.66185,3.48582 -10.54044,0 -20.25093,-3.07084 -9.71048,-3.07084 -16.26714,-8.96353 -6.47365,-5.89269 -9.79348,-14.10925 -3.23683,-8.21657 -3.23683,-17.26309 0,-9.04652 3.15384,-17.26308 3.23682,-8.21657 10.12546,-14.77322 6.97163,-6.55666 17.18009,-10.04247 10.20846,-3.56881 21.24688,-3.56881 z m -0.58097,24.40071 q -5.31172,0 -9.4615,2.73885 -4.14978,2.73886 -6.30767,8.05058 -2.07489,5.22872 -2.07489,11.45339 0,9.12952 4.56476,14.02626 4.56476,4.81374 11.45339,4.81374 5.22873,0 9.37851,-2.73885 4.14978,-2.82185 6.22467,-8.21657 2.15788,-5.47771 2.15788,-11.70238 0,-5.14573 -1.65991,-9.29551 -1.65991,-4.14978 -5.47771,-6.63964 -3.7348,-2.48987 -8.79753,-2.48987 z"
             id="path46" /><path
             style="font-size:169.975px;line-height:1;font-family:'Eras Bold ITC';-inkscape-font-specification:'Eras Bold ITC';text-align:end;text-anchor:end;fill:#898989;fill-opacity:1;stroke-width:5.09768"
             d="m 335.90526,446.30661 q -18.34203,-58.42891 -28.05251,-84.73852 8.13357,0.166 16.35013,0.166 7.71859,0 14.69023,-0.166 l 11.78537,43.4897 1.9919,8.54855 5.47771,-17.09709 11.95136,-34.94116 q 8.05058,0.166 16.43313,0.166 8.88053,0 15.60318,-0.166 l 11.45339,46.47754 1.07895,5.56071 1.32793,-4.14978 q 0.49797,-1.57692 2.48986,-7.30361 l 14.10926,-40.58486 q 8.13357,0.166 15.1052,0.166 5.97568,0 15.76916,-0.166 l -30.54238,71.62521 -5.31172,13.11331 q -8.63154,-0.16599 -14.60723,-0.16599 -6.55665,0 -17.0141,0.16599 l -5.89268,-23.98573 q -1.65992,-6.88864 -5.8097,-26.22661 -12.28335,35.60511 -17.92705,50.21234 -8.71454,-0.16599 -14.10925,-0.16599 -6.22467,0 -16.35014,0.16599 z"
             id="path45" /><path
             style="font-size:169.975px;line-height:1;font-family:'Eras Bold ITC';-inkscape-font-specification:'Eras Bold ITC';text-align:end;text-anchor:end;fill:#898989;fill-opacity:1;stroke-width:5.09768"
             d="m 295.23746,421.24194 q -1.07895,4.97973 -4.14978,24.06872 -9.6275,1.9089 -16.18415,2.48987 -6.55665,0.66397 -13.2793,0.66397 -9.87647,0 -18.17603,-1.41093 -8.29956,-1.32793 -14.35824,-4.81374 -5.97569,-3.48582 -10.04247,-8.63155 -4.06679,-5.22872 -6.22467,-12.36634 -2.07489,-7.13763 -2.07489,-14.69023 0,-10.62343 4.23277,-20.7489 4.23278,-10.20846 10.87243,-15.93516 6.72264,-5.72669 15.43718,-8.13356 8.71454,-2.40688 17.84406,-2.40688 9.4615,0 18.01004,2.24088 8.63155,2.15789 14.60723,7.6356 5.97568,5.47771 8.46555,12.36635 2.57287,6.88863 2.57287,14.85621 0,4.73075 -1.07895,10.54044 l -58.17992,0.083 q -0.083,1.32793 -0.083,2.40687 0,8.96353 6.39066,13.1963 6.39066,4.23278 15.60317,4.23278 5.47771,0 12.44934,-1.24494 7.05463,-1.32793 17.34609,-4.39876 z m -51.0423,-26.89058 h 27.38855 q 0.083,-1.41093 0.083,-2.40687 0,-4.31578 -1.57691,-7.38661 -1.49392,-3.07084 -4.39877,-4.48177 -2.82185,-1.41092 -6.39066,-1.41092 -2.48987,0 -4.81375,0.82996 -2.32388,0.74696 -4.23277,2.32387 -1.82591,1.49392 -3.07084,3.48582 -1.24494,1.99189 -1.8259,3.90079 -0.58097,1.8259 -1.16194,5.14573 z"
             id="path44" /><path
             style="font-size:169.975px;line-height:1;font-family:'Eras Bold ITC';-inkscape-font-specification:'Eras Bold ITC';text-align:end;text-anchor:end;fill:#898989;fill-opacity:1;stroke-width:5.09768"
             d="m 54.882161,446.30661 2.323877,-40.00388 1.32793,-31.28935 0.165991,-13.44529 q 9.129517,0.166 16.101148,0.166 7.884583,0 15.354188,-0.166 l -0.58097,11.03842 q 2.572864,-3.31982 4.315772,-5.06273 1.825903,-1.82591 4.398767,-3.40282 2.572866,-1.65991 5.311716,-2.57287 2.73886,-0.99594 6.14168,-1.57691 3.40282,-0.58097 7.13762,-0.58097 4.23278,0 7.80159,0.74696 3.56881,0.66396 6.14167,1.74291 2.57287,1.07894 4.48177,2.48986 1.90889,1.41093 3.31982,3.23683 1.49392,1.74291 3.40282,5.14573 3.65181,-5.31172 7.71859,-8.05057 4.06679,-2.73886 9.21251,-3.98379 5.22873,-1.32793 10.70644,-1.32793 7.22062,0 13.61128,2.07489 6.39066,2.07489 10.45744,7.22062 4.14978,5.06273 4.14978,13.1963 0,3.8178 -0.58096,11.53639 -0.49798,7.71859 -1.49393,26.55859 -0.91295,18.75701 -0.99594,26.30961 -7.6356,-0.16599 -14.77322,-0.16599 -8.71454,0 -18.25904,0.16599 0.82996,-10.54044 1.65992,-26.3926 0.91295,-15.93516 0.91295,-22.07684 0,-5.31171 -1.24494,-7.88458 -1.24493,-2.65586 -3.23682,-3.56881 -1.9089,-0.99595 -4.23278,-0.99595 -2.48987,0 -4.31577,0.91296 -1.9919,0.99594 -3.48582,3.07083 -1.99189,2.73886 -3.23683,6.88864 -0.99594,3.23683 -1.57691,9.87648 -0.58097,6.80564 -0.91295,17.92705 l -0.66397,22.24282 q -8.88053,-0.16599 -16.01815,-0.16599 -7.30362,0 -17.18009,0.16599 0.74696,-7.38661 1.74291,-24.81569 0.99594,-17.42907 0.99594,-23.32176 0,-4.97974 -0.99594,-7.46961 -0.99595,-2.48987 -2.82186,-3.98379 -1.7429,-1.49392 -4.73075,-1.49392 -3.236824,0 -5.643697,1.9089 -2.406872,1.9089 -4.14978,5.47771 -1.659912,3.56881 -2.406873,9.87648 -0.663965,6.22467 -1.244934,19.08899 -0.580969,12.86432 -0.74696,24.73269 -10.042469,-0.16599 -16.26714,-0.16599 -6.888635,0 -17.097095,0.16599 z"
             id="path43" /><path
             style="font-size:169.975px;line-height:1;font-family:'Eras Bold ITC';-inkscape-font-specification:'Eras Bold ITC';text-align:end;text-anchor:end;fill:#898989;fill-opacity:1;stroke-width:5.09768"
             d="m -40.479789,385.71982 q 1.576916,-8.21657 1.991894,-11.28741 0.414978,-3.15383 1.32793,-9.79348 23.902735,-5.22872 41.0828261,-5.22872 9.7934819,0 17.9270519,2.24088 8.133569,2.15789 12.698328,7.05463 4.564758,4.89674 4.564758,14.02625 0,4.64776 -1.244934,20.9149 -1.244934,16.26714 -1.908899,42.65974 -8.13357,-0.16599 -16.184144,-0.16599 -7.801587,0 -16.5991213,0.16599 1.1619385,-9.12952 2.5728638,-37.68001 -3.1538331,1.49392 -4.97973649,2.15789 -1.74290778,0.66396 -6.22467061,1.99189 -4.4817629,1.32793 -7.0546264,2.24089 -2.489869,0.91295 -4.398768,2.32387 -1.825903,1.41093 -2.655859,2.90485 -0.746961,1.49392 -0.746961,3.31982 0,2.82185 2.240882,4.81375 2.240881,1.99189 7.137622,1.99189 1.742908,0 3.7348026,-0.24898 1.9918946,-0.33199 5.4777102,-1.49392 -2.4068727,6.39066 -5.726697,18.67401 -7.1376228,1.16194 -13.5282838,1.16194 -10.291456,0 -17.180091,-2.82185 -6.80564,-2.90485 -10.540443,-9.29551 -3.651806,-6.39066 -3.651806,-12.78133 0,-3.90079 1.327929,-7.63559 1.410926,-3.7348 4.315772,-7.30362 2.904846,-3.56881 6.80564,-6.05868 3.900793,-2.57286 10.623438,-4.81374 6.80564,-2.24088 17.180091,-4.23278 4.3157713,-0.82995 7.8845825,-1.7429 3.65180677,-0.99595 5.14572772,-1.65992 1.57691658,-0.74696 2.48986828,-1.65991 0.9959473,-0.99595 1.4109253,-1.99189 0.4149781,-1.07895 0.4149781,-2.24089 0,-3.15383 -2.6558595,-4.81374 -2.65585948,-1.74291 -7.8015872,-1.74291 -14.2752442,0 -35.2731332,8.05058 z"
             id="path42" /><path
             style="font-size:169.975px;line-height:1;font-family:'Eras Bold ITC';-inkscape-font-specification:'Eras Bold ITC';text-align:end;text-anchor:end;fill:#898989;fill-opacity:1;stroke-width:5.09768"
             d="m -121.4005,446.30661 2.57287,-36.85005 0.82995,-21.16388 q 0.083,-5.7267 0.083,-11.70238 0,-6.05868 -0.16599,-15.02221 10.04247,0.166 15.93515,0.166 6.888639,0 15.852165,-0.166 l -0.331982,9.37851 q 3.236828,-3.65181 5.311719,-5.39472 2.07489,-1.8259 4.730749,-3.23683 2.65586,-1.49392 5.560706,-2.15788 2.904846,-0.74696 6.058679,-0.74696 2.987842,0 6.639649,0.82995 0.083,9.04653 0.414978,14.93921 l 0.580969,12.78133 q -4.564758,-1.32793 -8.548547,-1.32793 -4.979737,0 -8.631544,1.49392 -3.568811,1.41092 -6.390661,4.39877 -2.738856,2.90484 -4.398768,7.30361 -1.659912,4.39877 -2.323877,13.94326 -0.663965,9.5445 -0.663965,21.82785 0,4.31577 0.331983,10.70643 -8.050574,-0.16599 -16.184143,-0.16599 -8.05057,0 -17.26309,0.16599 z"
             id="path41" /><path
             style="font-size:169.975px;line-height:1;font-family:'Eras Bold ITC';-inkscape-font-specification:'Eras Bold ITC';text-align:end;text-anchor:end;fill:#898989;fill-opacity:1;stroke-width:5.09768"
             d="m -224.31505,446.30661 q 1.74291,-16.84811 2.40687,-27.05657 0.99595,-15.1052 1.9089,-41.4978 0.91295,-26.4756 0.91295,-35.60512 v -9.12952 q 24.98168,0.166 46.47754,0.166 21.66186,0 41.6638,-0.166 -1.32793,19.08899 -1.32793,24.98168 l -7.22062,-0.24898 -5.80969,-0.083 -5.80969,-0.083 h -16.35014 q -2.82185,0 -16.51612,0.166 l -0.74696,19.33797 12.03436,0.24899 h 13.44529 q 5.80969,0 17.76106,-0.24899 -0.91295,15.68617 -0.91295,24.5667 -13.3623,-0.41498 -19.83595,-0.41498 -10.95542,0 -23.90274,0.41498 l -0.82996,29.87842 -0.083,11.12141 v 3.65181 l -17.84406,-0.16599 q -2.07489,0 -19.42097,0.16599 z"
             id="text40" /></g></g></g></g></svg>
